# xmcd
#
# Track frame offsets:
#	150
#	20260
#	37815
#	62195
#	104423
#
# Disc length: 1904 seconds
# Revision: 0
# Processed by: cddbd v1.5.2PL0 Copyright (c) Steve Scherf et al.
# Submitted via: dBpowerAMP V12.0
#
DISCID=36076e05
DTITLE=Seduction - Breakdown
DYEAR=1990
DGENRE=Hip House
TTITLE0=Breakdown [Crossover Radio Mix]
TTITLE1=Breakdown [R&B Radio Mix]
TTITLE2=Breakdown [Extended Radio Mix]
TTITLE3=Breakdown [Clivillés/Cole Club Mix]
TTITLE4=Breakdown [Clivillés/Cole Dub Mix]
EXTD=
EXTT0=
EXTT1=
EXTT2=
EXTT3=
EXTT4=
PLAYORDER=
